HIERARCHY
ROOT Root
{
	OFFSET 0.00000 0.00000 0.00000
	CHANNELS 6 Xposition Yposition Zposition Zrotation Xrotation Yrotation
	JOINT Hips
	{
		OFFSET 0 0 0	
		CHANNELS 3 Zrotation Xrotation Yrotation
		JOINT Spine
		{
			OFFSET 0 4 0	
			CHANNELS 3 Zrotation Xrotation Yrotation
			JOINT Spine1
			{
				OFFSET 0 19.4 0	
				CHANNELS 3 Zrotation Xrotation Yrotation
				JOINT Spine2
				{
					OFFSET 0 16.6 0	
					CHANNELS 3 Zrotation Xrotation Yrotation
					JOINT LeftCollar
					{
						OFFSET 0 10 0	
						CHANNELS 3 Zrotation Xrotation Yrotation
						JOINT LeftArm
						{
							OFFSET 15.6 -2 3	
							CHANNELS 3 Zrotation Xrotation Yrotation
							JOINT LeftForeArm
							{
								OFFSET 3.5 -27 -1	
								CHANNELS 3 Zrotation Xrotation Yrotation
								JOINT LeftHand
								{
									OFFSET 1 -27 1	
									CHANNELS 3 Zrotation Xrotation Yrotation
									End Site
									{
										OFFSET 0 -15 0
									}
								}
							}
						}
					}
					JOINT RightCollar
					{
						OFFSET 0 10 0	
						CHANNELS 3 Zrotation Xrotation Yrotation
						JOINT RightArm
						{
							OFFSET -15.6 -2 3	
							CHANNELS 3 Zrotation Xrotation Yrotation
							JOINT RightForeArm
							{
								OFFSET -3.5 -27 -1	
								CHANNELS 3 Zrotation Xrotation Yrotation
								JOINT RightHand
								{
									OFFSET -1 -27 1	
									CHANNELS 3 Zrotation Xrotation Yrotation
									End Site
									{
										OFFSET 0 -15 0
									}
								}
							}
						}
					}
					JOINT Neck
					{
						OFFSET 0 10 0	
						CHANNELS 3 Zrotation Xrotation Yrotation
						JOINT Head
						{
							OFFSET 0 12.7 3	
							CHANNELS 3 Zrotation Xrotation Yrotation
							End Site
							{
								OFFSET 0 12.7 3
							}
						}
					}
				}
			}
		}
	}
	JOINT LeftHip
	{
		OFFSET 0 0 0	
		CHANNELS 3 Zrotation Xrotation Yrotation
		JOINT LeftUpLeg
		{
			OFFSET 8.8 -6 0	
			CHANNELS 3 Zrotation Xrotation Yrotation
			JOINT LeftLeg
			{
				OFFSET 0 -39 2	
				CHANNELS 3 Zrotation Xrotation Yrotation
				JOINT LeftFoot
				{
					OFFSET 0 -43 -2	
					CHANNELS 3 Zrotation Xrotation Yrotation
					JOINT LeftFootFront
					{
						OFFSET 0 -7 8.5	
						CHANNELS 3 Zrotation Xrotation Yrotation
						End Site
						{
							OFFSET 0 -0.5 9
						}
					}
				}
				JOINT LeftHeel
				{
					OFFSET 0 -43 -2	
					CHANNELS 3 Zrotation Xrotation Yrotation
					End Site
					{
						OFFSET 0 -7.5 -5
					}
				}
			}
		}
	}
	JOINT RightHip
	{
		OFFSET 0 0 0	
		CHANNELS 3 Zrotation Xrotation Yrotation
		JOINT RightUpLeg
		{
			OFFSET -8.8 -6 0	
			CHANNELS 3 Zrotation Xrotation Yrotation
			JOINT RightLeg
			{
				OFFSET 0 -39 2	
				CHANNELS 3 Zrotation Xrotation Yrotation
				JOINT RightFoot
				{
					OFFSET 0 -43 -2	
					CHANNELS 3 Zrotation Xrotation Yrotation
					JOINT RightFootFront
					{
						OFFSET 0 -7 8.5	
						CHANNELS 3 Zrotation Xrotation Yrotation
						End Site
						{
							OFFSET 0 -0.5 9
						}
					}
				}
				JOINT RightHeel
				{
					OFFSET 0 -43 -2	
					CHANNELS 3 Zrotation Xrotation Yrotation
					End Site
					{
						OFFSET 0 -7.5 -5
					}
				}
			}
		}
	}
}
MOTION
Frames: 28
Frame Time: 0.025
0 95.5 0 -0 0 -0 -0.38606 0.90583 0.41728 0.72799 0.569 0.4346 0.72799 0.569 0.4346 0.6118 0.47759 0.36555 -0 0 -0 -5.0419 1.4442 -2.9724 6.0269 -8.5736 27.461 -0 0 -0 -0 0 -0 0.73102 0.47243 0.89065 -1.9847 -5.4354 11.206 -0 0 -0 -0 0 -0 -0 0 -0 -0 0 -0 -0 0 -0 -0 0 -0 -0 0 -0 -0 0 -0 -0 0 -0 -0 0 -0 -0 0 -0 -0 0 -0 -0 0 -0 -0 0 -0 -0 0 -0 
0 95.5 0 -0 0 -0 -0.38373 0.91393 0.43859 0.72572 0.54737 0.43715 0.72572 0.54737 0.43715 0.60988 0.45942 0.36767 -0 0 -0 -5.0302 1.49 -2.9163 6.0152 -8.58 27.388 -0 0 -0 -0 0 -0 0.73441 0.52438 0.90144 -1.9559 -5.4391 11.232 -0 0 -0 -0 0 -0 -0 0 -0 -0 0 -0 -0 0 -0 -0 0 -0 -0 0 -0 -0 0 -0 -0 0 -0 -0 0 -0 -0 0 -0 -0 0 -0 -0 0 -0 -0 0 -0 -0 0 -0 
0 95.5 0 -0 0 -0 -0.37663 0.91725 0.45948 0.72336 0.52873 0.43747 0.72336 0.52873 0.43747 0.60789 0.44376 0.36792 -0 0 -0 -5.0212 1.5331 -2.8655 6.0074 -8.584 27.343 -0 0 -0 -0 0 -0 0.71517 0.57019 0.9103 -1.9157 -5.4514 11.297 -0 0 -0 -0 0 -0 -0 0 -0 -0 0 -0 -0 0 -0 -0 0 -0 -0 0 -0 -0 0 -0 -0 0 -0 -0 0 -0 -0 0 -0 -0 0 -0 -0 0 -0 -0 0 -0 -0 0 -0 
0 95.5 0 -0 0 -0 -0.36552 0.91089 0.48399 0.72466 0.52362 0.43402 0.72466 0.52361 0.43402 0.60897 0.43947 0.36502 -0 0 -0 -5.0279 1.5499 -2.8292 6.0099 -8.592 27.339 -0 0 -0 -0 0 -0 0.6659 0.57343 0.9358 -1.8711 -5.4534 11.394 -0 0 -0 -0 0 -0 -0 0 -0 -0 0 -0 -0 0 -0 -0 0 -0 -0 0 -0 -0 0 -0 -0 0 -0 -0 0 -0 -0 0 -0 -0 0 -0 -0 0 -0 -0 0 -0 -0 0 -0 
0 95.5 0 -0 0 -0 -0.3541 0.89054 0.51682 0.73233 0.52928 0.42526 0.73233 0.52928 0.42526 0.61542 0.44423 0.35768 -0 0 -0 -5.0562 1.5588 -2.8003 6.0241 -8.6102 27.336 -0 0 -0 -0 0 -0 0.59306 0.53502 0.98785 -1.846 -5.4372 11.457 -0 0 -0 -0 0 -0 -0 0 -0 -0 0 -0 -0 0 -0 -0 0 -0 -0 0 -0 -0 0 -0 -0 0 -0 -0 0 -0 -0 0 -0 -0 0 -0 -0 0 -0 -0 0 -0 -0 0 -0 
0 95.5 0 -0 0 -0 -0.34538 0.85238 0.55697 0.74313 0.54818 0.41194 0.74313 0.54818 0.41194 0.62449 0.46011 0.34651 -0 0 -0 -5.0865 1.562 -2.7656 6.0384 -8.6405 27.285 -0 0 -0 -0 0 -0 0.51556 0.46198 1.0581 -1.8546 -5.4232 11.438 -0 0 -0 -0 0 -0 -0 0 -0 -0 0 -0 -0 0 -0 -0 0 -0 -0 0 -0 -0 0 -0 -0 0 -0 -0 0 -0 -0 0 -0 -0 0 -0 -0 0 -0 -0 0 -0 -0 0 -0 
0 95.5 0 -0 0 -0 -0.34112 0.79268 0.60395 0.75531 0.58561 0.39325 0.75531 0.58561 0.39325 0.63473 0.49157 0.33085 -0 0 -0 -5.0985 1.5447 -2.7145 6.0345 -8.6788 27.169 -0 0 -0 -0 0 -0 0.41348 0.36956 1.1529 -1.8618 -5.449 11.359 -0 0 -0 -0 0 -0 -0 0 -0 -0 0 -0 -0 0 -0 -0 0 -0 -0 0 -0 -0 0 -0 -0 0 -0 -0 0 -0 -0 0 -0 -0 0 -0 -0 0 -0 -0 0 -0 -0 0 -0 
0 95.5 0 -0 0 -0 -0.34477 0.70502 0.66481 0.76944 0.64353 0.36909 0.76944 0.64353 0.36909 0.6466 0.54023 0.31062 -0 0 -0 -5.0848 1.5095 -2.6632 6.0077 -8.7267 27.004 -0 0 -0 -0 0 -0 0.24537 0.27969 1.2686 -1.8161 -5.5445 11.309 -0 0 -0 -0 0 -0 -0 0 -0 -0 0 -0 -0 0 -0 -0 0 -0 -0 0 -0 -0 0 -0 -0 0 -0 -0 0 -0 -0 0 -0 -0 0 -0 -0 0 -0 -0 0 -0 -0 0 -0 
0 95.5 0 -0 0 -0 -0.36458 0.57562 0.75026 0.78577 0.71681 0.34776 0.78577 0.71681 0.34776 0.66033 0.6018 0.29278 -0 0 -0 -5.0411 1.4979 -2.6558 5.9567 -8.7986 26.806 -0 0 -0 -0 0 -0 -0.0040892 0.24656 1.3451 -1.706 -5.7749 11.382 -0 0 -0 -0 0 -0 -0 0 -0 -0 0 -0 -0 0 -0 -0 0 -0 -0 0 -0 -0 0 -0 -0 0 -0 -0 0 -0 -0 0 -0 -0 0 -0 -0 0 -0 -0 0 -0 -0 0 -0 
0 95.5 0 -0 0 -0 -0.4094 0.38715 0.86354 0.81519 0.81174 0.32224 0.81519 0.81174 0.32224 0.68505 0.68155 0.27145 -0 0 -0 -4.9956 1.5115 -2.6762 5.8402 -8.8955 26.517 -0 0 -0 -0 0 -0 -0.35856 0.30892 1.3828 -1.538 -6.2653 11.581 -0 0 -0 -0 0 -0 -0 0 -0 -0 0 -0 -0 0 -0 -0 0 -0 -0 0 -0 -0 0 -0 -0 0 -0 -0 0 -0 -0 0 -0 -0 0 -0 -0 0 -0 -0 0 -0 -0 0 -0 
0 95.5 0 -0 0 -0 -0.4796 0.13463 0.99676 0.85647 0.9482 0.28065 0.85647 0.9482 0.28065 0.71974 0.79621 0.2367 -0 0 -0 -4.9419 1.4934 -2.6876 5.5631 -8.9877 25.926 -0 0 -0 -0 0 -0 -0.82306 0.41343 1.385 -1.2875 -7.1315 11.877 -0 0 -0 -0 0 -0 -0 0 -0 -0 0 -0 -0 0 -0 -0 0 -0 -0 0 -0 -0 0 -0 -0 0 -0 -0 0 -0 -0 0 -0 -0 0 -0 -0 0 -0 -0 0 -0 -0 0 -0 
0 95.5 0 -0 0 -0 -0.56309 -0.16081 1.1312 0.88791 1.1372 0.23727 0.88791 1.1372 0.23727 0.74614 0.95503 0.20049 -0 0 -0 -4.8144 1.4088 -2.7391 4.9845 -9.0394 24.556 -0 0 -0 -0 0 -0 -1.3884 0.4325 1.2279 -0.89578 -8.371 12.34 -0 0 -0 -0 0 -0 -0 0 -0 -0 0 -0 -0 0 -0 -0 0 -0 -0 0 -0 -0 0 -0 -0 0 -0 -0 0 -0 -0 0 -0 -0 0 -0 -0 0 -0 -0 0 -0 -0 0 -0 
0 95.5 0 -0 0 -0 -0.63688 -0.48986 1.231 0.88461 1.3765 0.20182 0.88461 1.3765 0.20182 0.74337 1.156 0.17095 -0 0 -0 -4.536 1.292 -2.884 3.9142 -9.0341 21.73 -0 0 -0 -0 0 -0 -2.0204 0.29264 0.78427 -0.35622 -9.9483 13.146 -0 0 -0 -0 0 -0 -0 0 -0 -0 0 -0 -0 0 -0 -0 0 -0 -0 0 -0 -0 0 -0 -0 0 -0 -0 0 -0 -0 0 -0 -0 0 -0 -0 0 -0 -0 0 -0 -0 0 -0 
0 95.5 0 -0 0 -0 -0.68914 -0.92944 1.267 0.81694 1.6751 0.17073 0.81694 1.6751 0.17073 0.68653 1.4069 0.14501 -0 0 -0 -3.9895 1.2375 -3.2166 2.2184 -9.0371 17.136 -0 0 -0 -0 0 -0 -2.6064 0.014945 -0.023161 0.24995 -11.886 14.263 -0 0 -0 -0 0 -0 -0 0 -0 -0 0 -0 -0 0 -0 -0 0 -0 -0 0 -0 -0 0 -0 -0 0 -0 -0 0 -0 -0 0 -0 -0 0 -0 -0 0 -0 -0 0 -0 -0 0 -0 
0 95.5 0 -0 0 -0 -0.76103 -1.5992 1.2501 0.68387 2.0478 0.11524 0.68387 2.0478 0.11524 0.57468 1.7201 0.09844 -0 0 -0 -3.1127 1.3342 -3.8824 -0.068866 -9.1665 11.365 -0 0 -0 -0 0 -0 -3.1359 -0.37371 -1.1514 1.0063 -14.042 15.395 -0 0 -0 -0 0 -0 -0 0 -0 -0 0 -0 -0 0 -0 -0 0 -0 -0 0 -0 -0 0 -0 -0 0 -0 -0 0 -0 -0 0 -0 -0 0 -0 -0 0 -0 -0 0 -0 -0 0 -0 
0 95.5 0 -0 0 -0 -0.9082 -2.5126 1.2115 0.50702 2.4855 -0.0028606 0.50702 2.4855 -0.0028607 0.42585 2.0879 -0.00092356 -0 0 -0 -1.9404 1.5659 -5.0278 -2.7598 -9.4781 5.4907 -0 0 -0 -0 0 -0 -3.6644 -0.83631 -2.502 2.2391 -16.255 16.234 -0 0 -0 -0 0 -0 -0 0 -0 -0 0 -0 -0 0 -0 -0 0 -0 -0 0 -0 -0 0 -0 -0 0 -0 -0 0 -0 -0 0 -0 -0 0 -0 -0 0 -0 -0 0 -0 -0 0 -0 
0 95.5 0 -0 0 -0 -1.1592 -3.5027 1.1475 0.30839 2.9743 -0.20494 0.30839 2.9743 -0.20494 0.25829 2.4985 -0.17105 -0 0 -0 -0.52968 1.7353 -6.7165 -5.6279 -10.011 0.23429 -0 0 -0 -0 0 -0 -4.1683 -1.3748 -3.9651 4.0011 -18.559 16.472 -0 0 -0 -0 0 -0 -0 0 -0 -0 0 -0 -0 0 -0 -0 0 -0 -0 0 -0 -0 0 -0 -0 0 -0 -0 0 -0 -0 0 -0 -0 0 -0 -0 0 -0 -0 0 -0 -0 0 -0 
0 95.5 0 -0 0 -0 -1.5623 -4.5119 0.98083 0.1275 3.6164 -0.47964 0.1275 3.6164 -0.47964 0.10504 3.0379 -0.40226 -0 0 -0 1.0299 1.4396 -8.8232 -8.4777 -10.772 -4.0542 -0 0 -0 -0 0 -0 -4.5586 -2.203 -5.2885 5.9943 -21.008 15.642 -0 0 -0 -0 0 -0 -0 0 -0 -0 0 -0 -0 0 -0 -0 0 -0 -0 0 -0 -0 0 -0 -0 0 -0 -0 0 -0 -0 0 -0 -0 0 -0 -0 0 -0 -0 0 -0 -0 0 -0 
0 95.5 0 -0 0 -0 -2.133 -5.6327 0.60642 -0.021162 4.5218 -0.76986 -0.021162 4.5218 -0.76986 -0.021862 3.7983 -0.64656 -0 0 -0 2.6855 0.37173 -11.146 -11.093 -11.763 -6.5828 -0 0 -0 -0 0 -0 -4.7893 -3.455 -6.2553 8.2824 -23.596 13.205 -0 0 -0 -0 0 -0 -0 0 -0 -0 0 -0 -0 0 -0 -0 0 -0 -0 0 -0 -0 0 -0 -0 0 -0 -0 0 -0 -0 0 -0 -0 0 -0 -0 0 -0 -0 0 -0 -0 0 -0 
0 95.5 0 -0 0 -0 -2.7314 -6.7311 -0.17173 -0.19427 5.4907 -0.96253 -0.19427 5.4907 -0.96253 -0.16932 4.612 -0.80935 -0 0 -0 4.4444 -1.1431 -13.523 -13.342 -13.195 -6.2381 -0 0 -0 -0 0 -0 -5.0199 -4.6303 -7.0377 11.511 -26.622 8.9679 -0 0 -0 -0 0 -0 -0 0 -0 -0 0 -0 -0 0 -0 -0 0 -0 -0 0 -0 -0 0 -0 -0 0 -0 -0 0 -0 -0 0 -0 -0 0 -0 -0 0 -0 -0 0 -0 -0 0 -0 
0 95.5 0 -0 0 -0 -3.0832 -7.4178 -1.5871 -0.49914 6.0739 -0.95601 -0.49914 6.0739 -0.95601 -0.42584 5.1016 -0.80609 -0 0 -0 6.2373 -2.2055 -15.678 -15.035 -15.461 -2.3386 -0 0 -0 -0 0 -0 -5.5491 -4.8966 -7.9731 16.21 -30.76 4.0318 -0 0 -0 -0 0 -0 -0 0 -0 -0 0 -0 -0 0 -0 -0 0 -0 -0 0 -0 -0 0 -0 -0 0 -0 -0 0 -0 -0 0 -0 -0 0 -0 -0 0 -0 -0 0 -0 -0 0 -0 
0 95.5 0 -0 0 -0 -3.0739 -7.5089 -3.45 -0.95357 6.0244 -0.85943 -0.95357 6.0244 -0.85942 -0.80658 5.0596 -0.72822 -0 0 -0 7.9169 -2.083 -17.113 -15.763 -18.925 5.0152 -0 0 -0 -0 0 -0 -6.5002 -3.8894 -9.0483 21.801 -35.805 0.68633 -0 0 -0 -0 0 -0 -0 0 -0 -0 0 -0 -0 0 -0 -0 0 -0 -0 0 -0 -0 0 -0 -0 0 -0 -0 0 -0 -0 0 -0 -0 0 -0 -0 0 -0 -0 0 -0 -0 0 -0 
0 95.5 0 -0 0 -0 -3.015 -7.4911 -5.2235 -1.3795 5.7195 -0.91976 -1.3795 5.7195 -0.91976 -1.1643 4.8029 -0.78144 -0 0 -0 9.3674 -1.1137 -17.315 -15.182 -23.602 15.395 -0 0 -0 -0 0 -0 -7.7871 -2.3584 -10.007 27.371 -40.478 0.30963 -0 0 -0 -0 0 -0 -0 0 -0 -0 0 -0 -0 0 -0 -0 0 -0 -0 0 -0 -0 0 -0 -0 0 -0 -0 0 -0 -0 0 -0 -0 0 -0 -0 0 -0 -0 0 -0 -0 0 -0 
0 95.5 0 -0 0 -0 -3.3279 -8.0936 -6.9112 -1.6081 5.853 -1.101 -1.6081 5.853 -1.101 -1.3576 4.9145 -0.9354 -0 0 -0 10.613 -0.51008 -15.993 -13.408 -29.189 28.358 -0 0 -0 -0 0 -0 -9.3081 -1.7306 -10.859 33.006 -44.095 1.2498 -0 0 -0 -0 0 -0 -0 0 -0 -0 0 -0 -0 0 -0 -0 0 -0 -0 0 -0 -0 0 -0 -0 0 -0 -0 0 -0 -0 0 -0 -0 0 -0 -0 0 -0 -0 0 -0 -0 0 -0 
0 95.5 0 -0 0 -0 -3.9621 -9.1889 -8.8516 -1.6493 6.4496 -1.2808 -1.6493 6.4496 -1.2808 -1.3942 5.4153 -1.0876 -0 0 -0 11.735 -0.65253 -12.871 -10.821 -35.267 43.206 -0 0 -0 -0 0 -0 -11.033 -2.3144 -11.627 39.216 -47.43 0.019543 -0 0 -0 -0 0 -0 -0 0 -0 -0 0 -0 -0 0 -0 -0 0 -0 -0 0 -0 -0 0 -0 -0 0 -0 -0 0 -0 -0 0 -0 -0 0 -0 -0 0 -0 -0 0 -0 -0 0 -0 
0 95.5 0 -0 0 -0 -4.4882 -9.9334 -11.091 -1.5984 6.9059 -1.5008 -1.5984 6.9058 -1.5008 -1.3537 5.7982 -1.2726 -0 0 -0 12.609 -0.87419 -7.8222 -7.9341 -41.27 58.645 -0 0 -0 -0 0 -0 -12.774 -3.0811 -12.176 46.087 -51.438 -5.3864 -0 0 -0 -0 0 -0 -0 0 -0 -0 0 -0 -0 0 -0 -0 0 -0 -0 0 -0 -0 0 -0 -0 0 -0 -0 0 -0 -0 0 -0 -0 0 -0 -0 0 -0 -0 0 -0 -0 0 -0 
0 95.5 0 -0 0 -0 -4.8714 -9.8683 -13.685 -1.4498 7.0228 -1.6089 -1.4498 7.0228 -1.6089 -1.2301 5.8965 -1.3623 -0 0 -0 13.107 -1.2567 -1.5247 -5.3548 -46.728 73.308 -0 0 -0 -0 0 -0 -13.865 -3.4365 -12.654 52.901 -56.36 -13.945 -0 0 -0 -0 0 -0 -0 0 -0 -0 0 -0 -0 0 -0 -0 0 -0 -0 0 -0 -0 0 -0 -0 0 -0 -0 0 -0 -0 0 -0 -0 0 -0 -0 0 -0 -0 0 -0 -0 0 -0 
0 95.5 0 -0 0 -0 -5.3846 -9.8404 -16.462 -1.263 7.3424 -1.4822 -1.263 7.3424 -1.4822 -1.0728 6.1655 -1.2548 -0 0 -0 13.552 -2.5808 5.0582 -3.3804 -51.502 86.833 -0 0 -0 -0 0 -0 -13.613 -3.8235 -12.913 58.121 -62.673 -23.919 -0 0 -0 -0 0 -0 -0 0 -0 -0 0 -0 -0 0 -0 -0 0 -0 -0 0 -0 -0 0 -0 -0 0 -0 -0 0 -0 -0 0 -0 -0 0 -0 -0 0 -0 -0 0 -0 -0 0 -0 
